<svg fill="#3b3e99" xmlns="http://www.w3.org/2000/svg" xmlns:xlink="http://www.w3.org/1999/xlink" viewBox="0 0 24 24" version="1.1" x="0px" y="0px">
  <title>game_021-fight-sword-shield-attack-defence</title>
  <desc>Created with Sketch.</desc>
  <rect width="100%" height="100%" fill="white" />
  <g stroke="none" stroke-width="1" fill="none" fill-rule="evenodd">
    <g transform="translate(-45.000000, -141.000000)" fill="currentColor">
      <g transform="translate(43.000000, 140.000000)">
        <g transform="translate(4.000000, 2.000000)">
          <path d="M1.02007777,3.98221028 C1.42374135,3.96026645 1.87253386,3.92085574 2.35541603,3.85960509 C3.73639671,3.68443613 5.11836991,3.3689054 6.41382026,2.87594552 C7.73188145,2.37438151 8.88735732,1.71427163 9.83234154,0.873562717 C10.0386545,0.690015555 10.0571099,0.373971456 9.87356272,0.167658464 C9.69001555,-0.0386545276 9.37397146,-0.057109879 9.16765846,0.126437283 C8.32093454,0.879728542 7.26962494,1.48032945 6.05816834,1.94132704 C4.84412119,2.40331042 3.53734705,2.70167178 2.22958041,2.86755398 C1.77140101,2.92567124 1.34635064,2.96299704 0.965796251,2.98368461 C0.739886011,2.99596546 0.580850483,3 0.5,3 C0.223857625,3 0,3.22385763 0,3.5 C0,3.77614237 0.223857625,4 0.5,4 C0.598399339,4 0.775457227,3.99550826 1.02007777,3.98221028 Z M13.6979208,18.6456856 C12.7429839,19.3696899 11.7173121,19.9730263 10.6917417,20.4601164 C10.3331861,20.6304108 10.0007918,20.7737966 9.70342231,20.8909674 C9.52741253,20.9603195 9.4039511,21.00497 9.34188612,21.0256584 C9.07991446,21.1129822 8.93833446,21.3961422 9.02565835,21.6581139 C9.11298224,21.9200855 9.39614222,22.0616655 9.65811388,21.9743416 C9.7366739,21.948155 9.87688434,21.8974471 10.0700152,21.8213488 C10.3878801,21.6961023 10.7410326,21.543762 11.1207583,21.363413 C12.2045629,20.8486648 13.2882661,20.2111924 14.3020792,19.4425497 C17.2285424,17.2237934 19,14.3755674 19,10.8529412 C19,10.5767988 18.7761424,10.3529412 18.5,10.3529412 C18.2238576,10.3529412 18,10.5767988 18,10.8529412 C18,14.0214914 16.3964576,16.599736 13.6979208,18.6456856 Z"></path>
          <path d="M1,10.8529412 L1,3.5 C1,3.22385763 0.776142375,3 0.5,3 C0.223857625,3 0,3.22385763 0,3.5 L0,10.8529412 C0,12.9611158 0.646614891,14.8539622 1.82896698,16.530427 C1.98812066,16.7560921 2.30007788,16.8100102 2.52574294,16.6508565 C2.75140799,16.4917028 2.80532611,16.1797456 2.64617243,15.9540806 C1.57865557,14.4404414 1,12.7465334 1,10.8529412 Z M15.6277205,3.70396367 C15.8995093,3.75280536 16.1594315,3.57207109 16.2082732,3.30028239 C16.2571149,3.02849368 16.0763807,2.76857139 15.804592,2.7197297 C13.4277527,2.29260066 11.3319508,1.46057056 9.83234154,0.126437283 C9.62602854,-0.057109879 9.30998445,-0.0386545276 9.12643728,0.167658464 C8.94289012,0.373971456 8.96134547,0.690015555 9.16765846,0.873562717 C10.8282653,2.35092807 13.0858133,3.24717115 15.6277205,3.70396367 Z M18,10.8529412 C18,11.1290836 18.2238576,11.3529412 18.5,11.3529412 C18.7761424,11.3529412 19,11.1290836 19,10.8529412 L19,5.80561733 C19,5.52947496 18.7761424,5.30561733 18.5,5.30561733 C18.2238576,5.30561733 18,5.52947496 18,5.80561733 L18,10.8529412 Z M9.31727122,20.8991001 C9.03617422,20.7889141 8.72111363,20.6541202 8.38019069,20.4940819 C7.40471486,20.0361677 6.42138921,19.4693724 5.49498893,18.7895714 C5.27235687,18.626202 4.95944082,18.6742438 4.79607138,18.8968759 C4.63270194,19.119508 4.68074378,19.432424 4.90337585,19.5957935 C5.88594917,20.3168147 6.9244959,20.9154398 7.95525479,21.3993053 C8.316514,21.56889 8.65152498,21.7122194 8.95232194,21.8301275 C9.13516651,21.9017999 9.26768117,21.9496067 9.34188612,21.9743416 C9.60385778,22.0616655 9.88701776,21.9200855 9.97434165,21.6581139 C10.0616655,21.3961422 9.92008554,21.1129822 9.65811388,21.0256584 C9.59987299,21.0062447 9.48356301,20.9642841 9.31727122,20.8991001 Z"></path>
        </g>
        <g transform="translate(13.500000, 14.000000) scale(-1, -1) rotate(45.000000) translate(-13.500000, -14.000000) translate(9.000000, 0.000000)">
          <path d="M4.91602515,0.777350098 C5.06920138,0.547585754 5.00711444,0.237151082 4.7773501,0.0839748528 C4.54758575,-0.0692013767 4.23715108,-0.00711444244 4.08397485,0.222649902 L2.08397485,3.2226499 C1.93079862,3.45241425 1.99288556,3.76284892 2.2226499,3.91602515 C2.45241425,4.06920138 2.76284892,4.00711444 2.91602515,3.7773501 L4.91602515,0.777350098 Z M6,18.5 C6,18.7761424 6.22385763,19 6.5,19 C6.77614237,19 7,18.7761424 7,18.5 L7,3.5 C7,3.22385763 6.77614237,3 6.5,3 C6.22385763,3 6,3.22385763 6,3.5 L6,18.5 Z"></path>
          <path d="M3,3.5 C3,3.22385763 2.77614237,3 2.5,3 C2.22385763,3 2,3.22385763 2,3.5 L2,18.5 C2,18.7761424 2.22385763,19 2.5,19 C2.77614237,19 3,18.7761424 3,18.5 L3,3.5 Z M6.08397485,3.7773501 C6.23715108,4.00711444 6.54758575,4.06920138 6.7773501,3.91602515 C7.00711444,3.76284892 7.06920138,3.45241425 6.91602515,3.2226499 L4.91602515,0.222649902 C4.76284892,-0.00711444244 4.45241425,-0.0692013767 4.2226499,0.0839748528 C3.99288556,0.237151082 3.93079862,0.547585754 4.08397485,0.777350098 L6.08397485,3.7773501 Z"></path>
          <path d="M1.49703014,19 L7.50296986,19 C7.77876662,19 8,19.2213022 8,19.5 C8,19.7736673 7.77329975,20 7.50296986,20 L1.49703014,20 C1.22123338,20 1,19.7786978 1,19.5 C1,19.2263327 1.22670025,19 1.49703014,19 Z M1.49703014,21 L7.50296986,21 C8.32522156,21 9,20.3263157 9,19.5 C9,18.6690871 8.33112102,18 7.50296986,18 L1.49703014,18 C0.674778436,18 -1.13686838e-13,18.6736843 -1.13686838e-13,19.5 C-1.13686838e-13,20.3309129 0.668878983,21 1.49703014,21 Z"></path>
          <polygon points="3 23.5 4 23.5 4 20.5 3 20.5"></polygon>
          <polygon points="6 20.5 5 20.5 5 23.5 6 23.5"></polygon>
          <path d="M7,25.5 C7,24.1192881 5.88071187,23 4.5,23 C3.11928813,23 2,24.1192881 2,25.5 C2,26.8807119 3.11928813,28 4.5,28 C5.88071187,28 7,26.8807119 7,25.5 Z M3,25.5 C3,24.6715729 3.67157288,24 4.5,24 C5.32842712,24 6,24.6715729 6,25.5 C6,26.3284271 5.32842712,27 4.5,27 C3.67157288,27 3,26.3284271 3,25.5 Z"></path>
          <path d="M4,18.5 C4,18.7761424 4.22385763,19 4.5,19 C4.77614237,19 5,18.7761424 5,18.5 L5,4.08578644 C5,3.80964406 4.77614237,3.58578644 4.5,3.58578644 C4.22385763,3.58578644 4,3.80964406 4,4.08578644 L4,18.5 Z"></path>
        </g>
      </g>
    </g>
  </g>
</svg>